# xmcd
#
# Track frame offsets:
#	150
#	16001
#	34013
#	50403
#	63404
#	77075
#	94617
#	107968
#	125710
#	143191
#
# Disc length: 2099 seconds
#
# Revision: 1
# Processed by: cddbd v1.5.2PL0 Copyright (c) Steve Scherf et al.
# Submitted via: audiograbber 1.83.01
#
DISCID=8008310a
DTITLE=Bellamy Brothers - Crazy from the Heart
DYEAR=1990
DGENRE=Country/Rock
TTITLE0=Crazy from the Heart
TTITLE1=I'll Give You All My Love Tonight
TTITLE2=Santa Fe
TTITLE3=It's Rainin' Girls
TTITLE4=Ying Yang
TTITLE5=Melt Down
TTITLE6=Ramblin' Again
TTITLE7=We Don't Wanna Go for It
TTITLE8=Your Name
TTITLE9=White Trash
EXTD=
EXTT0=
EXTT1=
EXTT2=
EXTT3=
EXTT4=
EXTT5=
EXTT6=
EXTT7=
EXTT8=
EXTT9=
PLAYORDER=
